<?xml version="1.0" encoding="UTF-8"?>
<svg id="Capa_1" xmlns="http://www.w3.org/2000/svg" version="1.1" viewBox="0 0 100 100">
  <!-- Generator: Adobe Illustrator 29.5.1, SVG Export Plug-In . SVG Version: 2.1.0 Build 141)  -->
  <path d="M92.45,53.26c.42-.63.83-1.27,1.23-1.92.24-.3.23-.74-.06-1.01-.33-.33-.87-.25-1.14.11-1.27,1.36-2.43,2.82-3.48,4.36-2.43,2.77-5.11,5.3-8.05,7.51-8.76,6.67-19.54,10.41-30.46,11.41-5.48.49-11.04.36-16.43-.58-3.92-.74-7.97-1.73-11.22-4.01-2.9-2.68-4.29-5.49-4.54-8.33,1.69.24,3.39.44,5.09.6,5.66.52,11.37.53,17.03.04,14.07-1.37,28.72-5.18,39.62-14.67,1.33-1.15,2.52-2.46,3.51-3.89,3.92-4.62,6.58-10.31,6.77-16.38,0-.28-.17-.54-.45-.62-.34-.1-.69.09-.79.43-.76,2.54-1.6,4.99-2.68,7.34-.2-2.5-1.27-4.96-3.5-7.14-1.56-1.32-3.29-2.19-5.12-2.76.41-1.7.67-3.36.84-5.11.19-2.04.19-4.11-.07-6.15-.05-.37-.36-.66-.74-.66-.41,0-.75.33-.75.75-.01,3.58-.83,7.21-2.11,10.54-4.04-.58-8.36,0-12.3.72-.18-1.86-.5-3.61-.96-5.41-.51-1.99-1.2-3.93-2.13-5.77-.17-.33-.56-.5-.92-.37-.4.14-.6.58-.45.97,1.25,3.56,1.69,7.48,1.53,11.23-3.36.86-6.88,1.99-10.4,3.38-.02-.07-.04-.14-.08-.21l-6.12-12.68c-.4-.84-1.7-.3-1.38.58.09.22,4.69,13.17,4.8,13.41,0,.02.02.03.03.05-3.6,1.56-7.18,3.39-10.56,5.46,0,0,0,0,0-.01-1.38-1.23-2.73-2.72-3.88-4.2-1.18-1.51-2.22-3.14-3.05-4.87-.16-.34-.55-.53-.92-.4-.39.13-.61.55-.48.95,1.26,3.74,3.29,7.11,5.8,10.15-3.8,2.54-7.3,5.39-10.26,8.53-.02-.01-.04-.03-.06-.04-3.38-1.68-6.63-3.97-9.16-6.81-.24-.29-.67-.35-1-.13-.34.23-.43.7-.2,1.04,2.25,3.27,5.15,5.95,8.42,8.19-.98,1.2-1.89,2.43-2.7,3.7-1.49,2.3-2.4,4.81-2.71,7.33-2.89-.43-5.78-.91-8.66-1.43-.91-.13-1.17,1.12-.39,1.45,2.89,1.16,5.89,1.92,8.94,2.47.15,4.07,1.95,7.98,5.58,10.85,3.67,2.59,8.06,3.66,12.35,4.46,16.87,2.7,35.19-.88,48.78-11.54.99-.79,1.95-1.63,2.88-2.49-2.16,5.08-3.32,10.6-3.44,16.09-.06,3.33.39,6.66,1.23,9.86.1.37.47.61.85.55.41-.07.68-.46.62-.86-.53-3.14-.74-6.32-.57-9.48.45-8.79,3.9-17.13,8.49-24.56ZM77.92,26.65c3.54,1.15,5.96,4.66,5.85,8.36-.19,3.9-2.7,7.16-5.54,9.82-2.06,1.8-4.28,3.38-6.61,4.78,2.66-8.37-1.01-18.19-8.21-23.17,5-.98,10.01-1.16,14.51.21ZM61.36,26.88c6.83,5.89,10.52,14.98,8.36,23.82-8.05,4.38-17.29,6.68-26.38,7.84-6.07-4.96-8.63-12.64-7.99-20.35,4.03-2.67,8.04-4.79,11.09-6.1,4.44-1.92,9.63-3.95,14.92-5.21ZM33.41,39.52c-1.29,7.17,1.66,15.11,7.64,19.29-.28.03-.57.07-.85.09-7.33.77-14.59.31-21.83-.65.94-6.84,7.78-13.61,15.04-18.73Z"/>
  <path d="M45.15,46.05l2.94.18c2.23.14,4.3,1.19,5.72,2.91l1.87,2.27c.29.35.86.17.88-.29l.18-2.94c.14-2.23,1.19-4.3,2.91-5.72l2.27-1.87c.35-.29.17-.86-.29-.88l-2.94-.18c-2.23-.14-4.3-1.19-5.72-2.91l-1.87-2.27c-.29-.35-.86-.17-.88.29l-.18,2.94c-.14,2.23-1.19,4.3-2.91,5.72l-2.27,1.87c-.35.29-.17.86.29.88Z"/>
</svg>