<svg id="Layer_30" enable-background="new 0 0 480 496" height="512" viewBox="0 0 480 496" width="512" xmlns="http://www.w3.org/2000/svg"><g><path d="m248 208.805v-85.491l10.343 10.343 11.314-11.313-29.657-29.657-29.657 29.657 11.314 11.313 10.343-10.343v85.491c-18.235 3.716-32 19.878-32 39.195 0 22.056 17.944 40 40 40s40-17.944 40-40c0-19.317-13.765-35.479-32-39.195zm-8 63.195c-13.233 0-24-10.767-24-24s10.767-24 24-24 24 10.767 24 24-10.767 24-24 24z"/><circle cx="240" cy="248" r="8"/><path d="m412.367 89.018 6.9-12.486-4.274-4.257c-46.803-46.607-108.949-72.275-174.993-72.275s-128.19 25.668-174.992 72.275l-4.274 4.257 6.9 12.486c-43.664 45.008-67.634 104.063-67.634 166.982 0 64.106 24.965 124.375 70.295 169.706 45.329 45.33 105.599 70.294 169.705 70.294s124.376-24.964 169.705-70.294c45.33-45.331 70.295-105.6 70.295-169.706 0-62.919-23.97-121.974-67.633-166.982zm-307.852-29.386 17.719 26.519 13.303-8.889-17.737-26.546c8.394-5.221 17.084-9.893 26.036-13.974l12.236 29.543 14.781-6.123-12.235-29.54c9.215-3.446 18.661-6.293 28.288-8.537l6.229 31.318 15.693-3.121-6.224-31.29c9.661-1.557 19.475-2.508 29.395-2.842v31.85h16v-31.849c9.92.334 19.734 1.285 29.395 2.842l-6.224 31.29 15.693 3.121 6.229-31.318c9.627 2.244 19.073 5.091 28.288 8.537l-12.235 29.54 14.781 6.123 12.236-29.543c8.951 4.08 17.641 8.752 26.036 13.974l-17.737 26.545 13.303 8.889 17.719-26.519c8.333 6.02 16.324 12.616 23.904 19.793l-24.198 43.786c-34.82-37.764-83.454-59.211-135.189-59.211s-100.369 21.447-135.191 59.21l-24.198-43.786c7.58-7.176 15.571-13.772 23.904-19.792zm73.627 228.368c14.105 19.92 37.108 32 61.858 32s47.753-12.08 61.858-32h94.928c-14.974 73.595-80.796 128-156.786 128s-141.812-54.405-156.786-128zm114.204-14.879c-10.527 19.047-30.584 30.879-52.346 30.879s-41.819-11.832-52.346-30.879l-74.65-135.081c31.995-36.951 77.973-58.04 126.996-58.04s95.001 21.089 126.996 58.04zm-150.118-49.121h-59.014c4.377-21.533 13.202-41.937 25.88-59.957zm228.678-59.957c12.678 18.02 21.503 38.424 25.88 59.957h-59.014zm-270.333-15.419c-18.499 23.994-30.496 52.31-34.778 82.244l-1.307 9.132h86.582l17.684 32h-104.266l1.307 9.133c5.94 41.524 26.69 79.673 58.427 107.42 32.046 28.017 73.163 43.447 115.778 43.447s83.732-15.43 115.778-43.447c31.736-27.747 52.486-65.896 58.427-107.42l1.307-9.133h-104.266l17.684-32h86.582l-1.307-9.133c-4.282-29.935-16.279-58.251-34.778-82.244l24.819-44.911c4.763 5.124 9.252 10.438 13.477 15.915l-15.874 10.606 8.889 13.304 16.302-10.893c4.63 6.983 8.862 14.19 12.653 21.606l-23.71 9.821 6.123 14.782 24.349-10.086c3.769 8.915 6.946 18.078 9.521 27.44l-24.768 4.927 3.121 15.692 25.339-5.04c1.841 9.254 3.098 18.673 3.765 28.212h-31.433v16h32c0 9.499-.599 18.86-1.753 28.051l-24.53-4.879-3.121 15.692 25.081 4.989c-1.868 9.372-4.315 18.536-7.316 27.45l-24.524-10.158-6.123 14.782 24.993 10.352c-3.714 8.865-7.981 17.444-12.76 25.69l-23.209-15.508-8.889 13.304 23.585 15.759c-5.431 7.997-11.372 15.618-17.763 22.833l-20.593-20.593-11.314 11.313 20.877 20.877c-6.942 6.799-14.317 13.157-22.09 19.016l-16.785-25.121-13.303 8.889 16.973 25.403c-8.186 5.302-16.739 10.082-25.611 14.298l-11.898-28.725-14.781 6.123 11.991 28.949c-9.094 3.546-18.476 6.507-28.098 8.852l-6.175-31.043-15.693 3.122 6.196 31.148c-9.598 1.619-19.4 2.624-29.367 2.976v-31.839h-16v31.842c-9.967-.352-19.769-1.357-29.367-2.976l6.196-31.148-15.693-3.122-6.175 31.043c-9.622-2.345-19.004-5.306-28.098-8.852l11.991-28.949-14.781-6.123-11.898 28.725c-8.872-4.216-17.424-8.996-25.611-14.298l16.973-25.403-13.303-8.889-16.785 25.121c-7.773-5.859-15.148-12.216-22.09-19.016l20.877-20.877-11.314-11.313-20.593 20.593c-6.391-7.215-12.332-14.836-17.763-22.832l23.585-15.759-8.889-13.304-23.209 15.508c-4.779-8.247-9.046-16.825-12.76-25.69l24.993-10.353-6.123-14.782-24.524 10.158c-3.001-8.914-5.449-18.079-7.316-27.451l25.081-4.989-3.121-15.692-24.53 4.879c-1.154-9.191-1.753-18.552-1.753-28.051h32v-16h-31.433c.667-9.539 1.925-18.958 3.765-28.212l25.339 5.04 3.121-15.692-24.768-4.927c2.38-8.655 5.283-17.137 8.685-25.413l19.453 8.058 6.123-14.782-18.955-7.852c4.043-8.107 8.591-15.978 13.629-23.576l16.302 10.893 8.889-13.304-15.874-10.606c4.224-5.477 8.714-10.791 13.477-15.915z"/></g></svg>