<?xml version="1.0" encoding="UTF-8"?>
<svg id="svg1209" xmlns="http://www.w3.org/2000/svg" version="1.1" xmlns:svg="http://www.w3.org/2000/svg" viewBox="0 0 682.67 682.67">
  <!-- Generator: Adobe Illustrator 29.5.1, SVG Export Plug-In . SVG Version: 2.1.0 Build 141)  -->
  <path d="M304.9,631.14c9.22,5.71,21.04,8.57,32.87,8.57s23.66-2.86,32.87-8.57c10.85-6.73,15.93-19,12.65-30.54-3.1-10.9-12.73-17.94-24.52-17.94-5.52,0-10,4.48-10,10s4.48,10,10,10c3.56,0,4.84,1.86,5.28,3.41.66,2.31-.03,5.64-3.95,8.06-12.11,7.5-32.56,7.5-44.67,0-4.69-2.91-10.86-1.46-13.77,3.23-2.91,4.69-1.46,10.86,3.23,13.77Z"/>
  <path d="M533.99,172.37c-4.78,2.76-6.42,8.88-3.66,13.66l5.34,9.25c-6.79,2.09-14.1,2.54-21.25.97-5.39-1.19-10.73,2.22-11.91,7.62-1.19,5.39,2.22,10.73,7.62,11.91,12.08,2.66,24.47,1.37,35.66-2.99l9.09,15.74c-9.37,7.51-16.68,17.6-20.42,29.39-1.67,5.26,1.25,10.89,6.51,12.55,1.01.32,2.02.47,3.03.47,4.24,0,8.18-2.72,9.53-6.98,2.21-6.98,6.26-13.08,11.46-17.92l5.34,9.25c2.76,4.78,8.88,6.42,13.66,3.66,4.78-2.76,6.42-8.88,3.66-13.66l-5.34-9.25c6.79-2.09,14.1-2.54,21.25-.97,5.39,1.19,10.73-2.22,11.91-7.62,1.19-5.39-2.22-10.73-7.62-11.91-12.08-2.66-24.48-1.37-35.66,2.99l-9.09-15.74c9.37-7.51,16.68-17.59,20.42-29.39,1.67-5.26-1.24-10.89-6.51-12.56-5.27-1.67-10.88,1.24-12.56,6.51-2.21,6.98-6.26,13.08-11.47,17.92l-5.34-9.25c-2.76-4.78-8.88-6.42-13.66-3.66Z"/>
  <path d="M522.67,341.33c0-99.99-81.35-181.33-181.33-181.33-40.99,0-81.17,14.07-113.13,39.61-31.46,25.15-53.92,60.45-63.24,99.4-1.28,5.37,2.03,10.77,7.4,12.05,5.38,1.29,10.77-2.03,12.05-7.4,17.41-72.81,81.94-123.66,156.91-123.66,88.96,0,161.33,72.37,161.33,161.33s-72.37,161.33-161.33,161.33-161.33-72.37-161.33-161.33c0-5.52-4.48-10-10-10s-10,4.48-10,10c0,99.99,81.35,181.33,181.33,181.33s181.33-81.35,181.33-181.33Z"/>
  <path d="M447.66,611.51c1.58.91,3.29,1.34,4.99,1.34,3.46,0,6.82-1.79,8.67-5,9.18-15.91,32.45-29.34,50.82-29.34h0c5.52,0,10-4.48,10-10,0-5.52-4.48-10-10-10h0c-2.83,0-5.71.21-8.61.62l-18.38-31.84c1.81-2.31,3.43-4.7,4.85-7.15,2.76-4.78,1.12-10.9-3.66-13.66-4.78-2.76-10.9-1.12-13.66,3.66-1.72,2.97-3.93,5.86-6.5,8.59-.31.29-.6.59-.87.9-8.31,8.42-20.09,15.23-31.55,18.21-.4.07-.81.17-1.21.3-3.66.87-7.26,1.34-10.7,1.34-5.52,0-10,4.48-10,10s4.48,10,10,10h0c2.83,0,5.71-.21,8.62-.62l18.38,31.84c-1.81,2.31-3.43,4.71-4.85,7.15-2.76,4.78-1.12,10.9,3.66,13.66ZM470.36,541.67l13.32,23.07c-7.08,2.99-13.91,6.93-20.04,11.57l-13.32-23.07c7.08-2.99,13.91-6.93,20.04-11.57Z"/>
  <path d="M322.56,571.18c12.11-7.5,32.56-7.51,44.67,0,4.69,2.91,10.86,1.46,13.77-3.23,2.91-4.69,1.46-10.86-3.23-13.77-18.43-11.42-47.31-11.43-65.74,0-10.85,6.72-15.93,19-12.65,30.54,3.1,10.9,12.73,17.94,24.52,17.94,5.52,0,10-4.48,10-10s-4.48-10-10-10c-3.56,0-4.84-1.86-5.29-3.41-.66-2.31.03-5.64,3.95-8.06Z"/>
  <path d="M579.81,479.02c4.69-8.13,15.12-10.92,23.25-6.23,4.79,2.76,10.9,1.12,13.66-3.66,2.76-4.78,1.12-10.9-3.66-13.66-9.21-5.32-19.79-6.22-29.25-3.35-.09-.4-.19-.8-.3-1.19-2.56-9.55-8.69-17.53-17.25-22.48-17.68-10.21-40.36-4.13-50.57,13.55s-4.13,40.36,13.55,50.57c9.22,5.32,19.79,6.21,29.25,3.35.09.4.19.79.3,1.19,2.56,9.55,8.68,17.53,17.25,22.48,1.58.91,3.29,1.34,4.99,1.34,3.46,0,6.82-1.79,8.67-5,2.76-4.78,1.12-10.9-3.66-13.66-3.94-2.27-6.75-5.94-7.93-10.33-1.17-4.38-.58-8.96,1.69-12.89v-.03ZM562.49,469.02c-4.69,8.13-15.12,10.92-23.25,6.23-8.13-4.69-10.92-15.12-6.23-23.25,3.15-5.45,8.88-8.51,14.77-8.51,2.89,0,5.81.73,8.48,2.28,3.94,2.27,6.75,5.94,7.93,10.33,1.18,4.39.57,8.98-1.7,12.92Z"/>
  <path d="M603.37,291.33c-5.52,0-10,4.48-10,10s4.48,10,10,10,10,4.49,10,10-4.49,10-10,10h-37.21c-5.52,0-10,4.48-10,10s4.48,10,10,10h37.21c5.51,0,10,4.49,10,10s-4.49,10-10,10-10,4.48-10,10,4.48,10,10,10c16.54,0,30-13.46,30-30,0-7.68-2.9-14.69-7.66-20,4.76-5.31,7.66-12.32,7.66-20,0-16.54-13.46-30-30-30Z"/>
  <path d="M97.81,502.52c5.26,9.12,15.75,18.48,16.93,19.52,1.87,1.65,4.23,2.5,6.61,2.5,1.72,0,3.44-.44,5-1.34l48.46-27.97c4.78-2.76,6.42-8.88,3.66-13.66-2.76-4.78-8.88-6.42-13.66-3.66l-41.94,24.21c-2.83-2.93-5.97-6.53-7.73-9.59-4.71-8.15-2.47-17.37,4.62-32.45l29.43,1.82c5.52.35,10.26-3.85,10.6-9.36.34-5.51-3.85-10.26-9.36-10.6l-21.07-1.31,9.4-18.9c2.46-4.94.45-10.95-4.5-13.41-4.95-2.46-10.95-.44-13.41,4.5l-13.17,26.47-29.5-1.83c-5.52-.35-10.26,3.85-10.6,9.36-.34,5.51,3.85,10.26,9.36,10.6l21.46,1.33c-5.58,13.44-9.12,28.99-.58,43.77Z"/>
  <path d="M421.26,106.26c-4.95,2.45-6.98,8.45-4.53,13.4l10.65,21.55c1.79,3.62,5.59,5.8,9.61,5.55l17.33-1.12,7.7,15.57c1.69,3.42,5.18,5.57,8.96,5.57.21,0,.43,0,.65-.02l23.99-1.55c5.51-.36,9.69-5.11,9.34-10.62-.36-5.51-5.12-9.68-10.62-9.34l-17.33,1.12-7.7-15.57c-1.79-3.62-5.6-5.8-9.61-5.55l-17.33,1.12-7.7-15.57c-2.45-4.95-8.45-6.98-13.4-4.53Z"/>
  <path d="M387.16,47.85c-4.49-3.22-10.74-2.18-13.95,2.31l-8.44,11.78h-23.43c-3.77,0-7.23,2.12-8.93,5.49l-11.07,21.93-11.07-21.93c-2.49-4.93-8.5-6.91-13.43-4.42s-6.91,8.5-4.42,13.43l20,39.61c1.7,3.37,5.15,5.49,8.93,5.49s7.23-2.12,8.93-5.49l17.23-34.12h15.52c7.18,19.41,8.33,27.86,8.33,31.27,0,3.75-3.05,6.8-6.79,6.8-1.9,0-3.29-.75-4.11-1.38-4.39-3.35-10.67-2.5-14.01,1.89-3.35,4.39-2.5,10.67,1.89,14.02,4.7,3.58,10.32,5.48,16.24,5.48,14.77,0,26.79-12.02,26.79-26.8,0-8.53-3.33-21.59-10.17-39.82l8.3-11.59c3.22-4.49,2.18-10.74-2.31-13.95Z"/>
  <path d="M239.29,646.13C108.13,602.23,20,479.75,20,341.33,20,164.15,164.15,20,341.33,20c66.76,0,130.78,20.28,185.12,58.65,4.51,3.19,10.75,2.11,13.94-2.4,3.19-4.51,2.11-10.75-2.4-13.94C480.25,21.55,412.25,0,341.33,0,250.16,0,164.45,35.51,99.98,99.98,35.51,164.45,0,250.16,0,341.33,0,414.34,22.72,483.98,65.71,542.72c20.69,28.27,45.49,53.12,73.72,73.86,28.57,20.99,60.03,37.32,93.52,48.52,1.05.35,2.12.52,3.17.52,4.18,0,8.08-2.65,9.48-6.83,1.75-5.24-1.07-10.9-6.31-12.66Z"/>
  <path d="M456.99,112.11l17.33-1.12,7.7,15.57c1.69,3.42,5.18,5.57,8.96,5.57.21,0,.43,0,.65-.02l23.99-1.55c5.51-.35,9.69-5.11,9.34-10.62-.36-5.51-5.12-9.69-10.62-9.34l-17.33,1.12-7.7-15.57c-1.79-3.62-5.6-5.82-9.61-5.55l-17.33,1.12-7.7-15.57c-2.45-4.95-8.45-6.98-13.4-4.53-4.95,2.45-6.98,8.45-4.53,13.4l10.65,21.55c1.79,3.62,5.59,5.8,9.61,5.55Z"/>
  <path d="M654.15,204.56c-18.27-41.73-44.34-78.89-77.47-110.44-4-3.81-10.33-3.65-14.14.35-3.81,4-3.65,10.33.35,14.14,64.34,61.27,99.77,143.92,99.77,232.74,0,177.18-144.15,321.33-321.33,321.33-21.9,0-43.77-2.21-65.02-6.58-5.41-1.11-10.7,2.37-11.81,7.78-1.11,5.41,2.37,10.7,7.78,11.81,22.57,4.64,45.8,6.99,69.04,6.99,91.17,0,176.89-35.5,241.36-99.97,64.47-64.47,99.97-150.18,99.97-241.36,0-47.55-9.59-93.57-28.51-136.78Z"/>
  <path d="M255.38,559.54l-6.99-4.04c-2.74-1.58-6.06-1.77-8.96-.52-2.9,1.25-5.04,3.8-5.77,6.88-.86,3.62-3.85,14.35-7.36,20.42-4.18,7.23-14.45,9.15-22.9,4.27-4.25-2.45-7.36-6.21-8.76-10.56-1.28-4.01-.93-8.06,1-11.4,3.44-5.97,10.34-9.9,17.63-14.07,7.72-4.41,15.69-8.97,20.17-16.72,4.46-7.72,4.96-15.93,1.41-23.13-3.84-7.8-12.24-13.44-21.92-14.72-5.48-.73-10.5,3.12-11.23,8.6-.73,5.48,3.12,10.5,8.6,11.23,3.35.44,5.86,2.21,6.6,3.73.19.39.78,1.58-.79,4.29-1.77,3.07-7.37,6.27-12.77,9.36-8.41,4.81-18.88,10.79-25.03,21.44-4.79,8.29-5.75,18.06-2.73,27.5,2.92,9.1,9.24,16.83,17.8,21.78,6.28,3.63,13.11,5.36,19.76,5.36,12.4,0,24.15-6.02,30.46-16.94,2.47-4.28,4.53-9.48,6.1-14.11,3.67.23,7.35-1.57,9.32-4.98,2.76-4.78,1.12-10.9-3.66-13.66Z"/>
  <path d="M234.6,107.28c2.76,4.78,8.88,6.42,13.66,3.66,4.78-2.76,6.42-8.88,3.66-13.66l-14.92-25.84c-1.24-2.16-3.28-3.86-5.85-4.62,0,0,0,0,0,0,0,0-.01,0-.02,0-.07-.02-.14-.04-.22-.06-.07-.02-.15-.04-.22-.06-2.6-.63-5.23-.19-7.39,1.07l-25.84,14.92c-4.78,2.76-6.42,8.88-3.66,13.66,2.76,4.78,8.88,6.42,13.66,3.66l4.95-2.86-6.08,22.69-.83-.22c-5.34-1.43-10.82,1.74-12.25,7.07-1.43,5.33,1.74,10.82,7.07,12.25l.83.22-7.82,29.19c-1.43,5.33,1.74,10.82,7.07,12.25.87.23,1.74.34,2.59.34,4.42,0,8.46-2.95,9.65-7.41l7.82-29.19.84.22c5.33,1.43,10.82-1.74,12.25-7.07,1.43-5.33-1.74-10.82-7.07-12.25l-.84-.22,6.08-22.69,2.86,4.96Z"/>
  <path d="M68,301.33v11.71c-11.64,4.13-20,15.25-20,28.29s8.36,24.16,20,28.29v11.71c0,5.52,4.48,10,10,10s10-4.48,10-10v-20c0-5.52-4.48-10-10-10s-10-4.49-10-10,4.49-10,10-10,10-4.48,10-10v-20c0-5.52-4.48-10-10-10s-10,4.48-10,10Z"/>
  <path d="M108,298.59v82.74c0,5.52,4.48,10,10,10s10-4.48,10-10v-82.74c0-5.52-4.48-10-10-10s-10,4.48-10,10Z"/>
  <path d="M210,331.33c-5.52,0-10,4.48-10,10s4.48,10,10,10h42.8c1.01,9,3.37,17.61,6.87,25.6l-37.07,21.4c-4.78,2.76-6.42,8.88-3.66,13.66,2.76,4.78,8.88,6.42,13.66,3.66l37.1-21.42c5.28,7.13,11.6,13.45,18.73,18.73l-21.42,37.1c-2.76,4.78-1.12,10.9,3.66,13.66,4.78,2.76,10.9,1.12,13.66-3.66l21.4-37.07c8,3.5,16.6,5.86,25.6,6.87v42.8c0,5.52,4.48,10,10,10s10-4.48,10-10v-42.8c9.01-1.01,17.61-3.37,25.6-6.87l21.4,37.07c2.76,4.78,8.88,6.42,13.66,3.66,4.78-2.76,6.42-8.88,3.66-13.66l-21.42-37.1c7.13-5.28,13.45-11.6,18.73-18.73l37.1,21.42c4.78,2.76,10.9,1.12,13.66-3.66,2.76-4.78,1.12-10.9-3.66-13.66l-37.07-21.4c3.5-8,5.86-16.6,6.87-25.6h42.8c5.52,0,10-4.48,10-10s-4.48-10-10-10h-42.8c-1-8.84-3.31-17.48-6.85-25.61l37.06-21.39c4.78-2.76,6.42-8.88,3.66-13.66-2.76-4.78-8.87-6.42-13.66-3.66l-45.24,26.12c-4.73,2.73-6.39,8.75-3.73,13.53.08.15.17.3.26.45,5.93,10.37,9.06,22.2,9.06,34.23,0,38.1-31,69.09-69.09,69.09s-69.09-31-69.09-69.09,30.99-69.09,69.09-69.09c12.04,0,23.88,3.14,34.25,9.07.04.02.07.05.11.07,4.65,2.82,10.71,1.4,13.63-3.19.1-.15.19-.31.28-.47l26.06-45.13c2.76-4.78,1.12-10.9-3.66-13.66-4.78-2.76-10.9-1.12-13.66,3.66l-21.39,37.06c-8.13-3.54-16.77-5.85-25.61-6.85v-42.8c0-5.52-4.48-10-10-10s-10,4.48-10,10v42.8c-9.01,1.01-17.61,3.37-25.6,6.87l-21.4-37.07c-2.76-4.78-8.88-6.42-13.66-3.66-4.78,2.76-6.42,8.88-3.66,13.66l21.42,37.1c-7.13,5.28-13.45,11.6-18.73,18.73l-37.1-21.42c-4.78-2.76-10.9-1.12-13.66,3.66-2.76,4.78-1.12,10.9,3.66,13.66l37.07,21.4c-3.5,8-5.86,16.6-6.87,25.6h-42.8Z"/>
  <path d="M148.14,216.9c-1.04.3-2.27.04-3.66-.77l-15.81-9.13c-7.54-4.35-15.57-8.68-23.61-9.6-7.37-.85-17.7.82-25.09,13.62-5.26,9.12-8.13,22.88-8.44,24.42-.85,4.21,1.09,8.49,4.8,10.63l48.46,27.98c1.57.91,3.29,1.34,4.99,1.34,3.46,0,6.82-1.79,8.67-5,2.76-4.78,1.12-10.9-3.66-13.66l-41.94-24.21c1.12-3.92,2.67-8.43,4.44-11.5,2.37-4.11,3.88-3.94,5.48-3.75,4.04.47,10.03,3.67,15.9,7.06l15.81,9.13c6.09,3.52,12.9,4.47,19.16,2.67,5.93-1.7,10.96-5.69,14.16-11.24,6.13-10.62,4.49-23.17-4.39-33.57l-31.18-36.49c-3.59-4.2-9.9-4.7-14.1-1.11-4.2,3.59-4.69,9.9-1.11,14.1l31.18,36.49c3.32,3.88,4.08,7.44,2.27,10.58-.6,1.03-1.43,1.75-2.34,2.01Z"/>
</svg>