<?xml version="1.0" encoding="UTF-8"?>
<svg xmlns="http://www.w3.org/2000/svg" id="Layer_3" data-name="Layer 3" viewBox="0 0 64 64" width="512" height="512"><path d="M20,40a4,4,0,1,0-4-4A4,4,0,0,0,20,40Zm0-6a2,2,0,1,1-2,2A2,2,0,0,1,20,34Z"/><path d="M10,13a1,1,0,0,0-1,1,3,3,0,0,1-3,3,1,1,0,0,0-1,1V54a1,1,0,0,0,1,1,3,3,0,0,1,3,3,1,1,0,0,0,1,1H30a1,1,0,0,0,1-1,3,3,0,0,1,3-3,1,1,0,0,0,1-1V18a1,1,0,0,0-1-1,3,3,0,0,1-3-3,1,1,0,0,0-1-1ZM30.322,54.633,24.88,44.526l-1.76.948,6.058,11.252c-.024.092-.058.18-.077.274H21V46H19V57H10.9c-.019-.094-.053-.182-.077-.274L16.88,45.474l-1.76-.948L9.678,54.633A4.983,4.983,0,0,0,7,53.1V49.2l4.759-5.553-1.518-1.3L7,46.13V38.2l1.826,1.6a16.97,16.97,0,0,0,22.348,0L33,38.2V46.13l-3.241-3.78-1.518,1.3L33,49.2v3.9A4.983,4.983,0,0,0,30.322,54.633ZM26,36a6,6,0,1,1-6-6A6.006,6.006,0,0,1,26,36Zm.655-4.431a14.97,14.97,0,0,1,3.2,2.135L32.481,36l-2.624,2.3a14.946,14.946,0,0,1-3.2,2.135,7.971,7.971,0,0,0,0-8.862Zm-13.31,8.862a14.946,14.946,0,0,1-3.2-2.135L7.519,36l2.624-2.3a14.97,14.97,0,0,1,3.2-2.135,7.971,7.971,0,0,0,0,8.862ZM33,18.9v3.9L28.241,28.35l1.518,1.3L33,25.87V33.8l-1.826-1.6a16.97,16.97,0,0,0-22.348,0L7,33.8V25.87l3.241,3.78,1.518-1.3L7,22.8V18.9a4.983,4.983,0,0,0,2.678-1.532L15.12,27.474l1.76-.948L10.822,15.274c.024-.092.058-.18.077-.274H19V26h2V15h8.1c.019.094.053.182.077.274L23.12,26.526l1.76.948,5.442-10.107A4.983,4.983,0,0,0,33,18.9Z"/><path d="M62,1H26a1,1,0,0,0-1,1V9H2a1,1,0,0,0-1,1V62a1,1,0,0,0,1,1H38a1,1,0,0,0,1-1V55H62a1,1,0,0,0,1-1V2A1,1,0,0,0,62,1ZM37,61H3V11H37Zm9.745-38,2.778,5-2.778,5h-5.49L39,28.942V27.058L41.255,23Zm-4.379-2L44,18.06,45.634,21Zm6.667,2H52.3l-1.634,2.941Zm1.633,7.059L52.3,33H49.033ZM45.634,35,44,37.94,42.366,35ZM39,35h1.078l3.048,5.485a1,1,0,0,0,1.748,0L47.921,35H54a1,1,0,0,0,.874-1.485L51.81,28l3.064-5.515A1,1,0,0,0,54,21H47.921l-3.047-5.485a1.04,1.04,0,0,0-1.748,0L40.078,21H39V10a1,1,0,0,0-1-1H33.976A4.95,4.95,0,0,0,34.9,7H53.1A5.013,5.013,0,0,0,57,10.9V45.1A5.013,5.013,0,0,0,53.1,49H39ZM61,53H39V51H54a1,1,0,0,0,1-1,3,3,0,0,1,3-3,1,1,0,0,0,1-1V10a1,1,0,0,0-1-1,3,3,0,0,1-3-3,1,1,0,0,0-1-1H34a1,1,0,0,0-1,1,3,3,0,0,1-3,3H27V3H61Z"/></svg>
