<svg enable-background="new 0 0 64 64" height="64" viewBox="0 0 64 64" width="64" xmlns="http://www.w3.org/2000/svg"><g id="_x35_0_bag_x2C__money_x2C__wild_x2C__west_x2C__cowboy"/><g id="_x34_9_shawl_x2C__desert_x2C__wild_x2C__west_x2C__cowboy"/><g id="_x34_8_mine_x2C__trolley_x2C__gold_x2C__mountain_x2C__wild_x2C__west_x2C__cowboy"/><g id="_x34_7_water_x2C__tower_x2C__wild_x2C__west_x2C__cowboy"/><g id="_x34_6_windmill_x2C__wind_x2C__pump_x2C__wild_x2C__west_x2C__cowboy"/><g id="_x34_5_mountain_x2C__cactus_x2C__desert_x2C__sun_x2C__wild_x2C__west_x2C__cowboy"/><g id="_x34_4_duel_x2C__revolver_x2C__pistol_x2C__wild_x2C__west_x2C__cowboy"/><g id="_x34_3_locomotive_x2C__train_x2C__steam_x2C__wild_x2C__west_x2C__cowboy"/><g id="_x34_2_belt_x2C__bullet_x2C__wild_x2C__west_x2C__cowboy"/><g id="_x34_1_piano_x2C__saloon_x2C__music_x2C__wild_x2C__west_x2C__cowboy"/><g id="_x34_0_wheel_x2C__wagon_x2C__wild_x2C__west_x2C__cowboy"/><g id="_x33_9_lasso_x2C__rope_x2C__wild_x2C__west_x2C__cowboy"/><g id="_x33_8_whip_x2C__bull_x2C__cow_x2C__wild_x2C__west_x2C__cowboy"/><g id="_x33_7_flask_x2C__water_x2C__wild_x2C__west_x2C__cowboy"/><g id="_x33_6_pickaxe_x2C__coin_x2C__money_x2C__mining_x2C__mine_x2C__wild_x2C__west"/><g id="_x33_5_desert_x2C__sun_x2C__cactus_x2C__wild_x2C__west_x2C__cowboy"/><g id="_x33_4_rattlesnake_x2C__snake_x2C__desert_x2C__wild_x2C__west_x2C__cowboy"/><g id="_x33_3_gold_x2C__bar_x2C__shine_x2C__cowboy_x2C__wild_x2C__west_x2C__cowboy"/><g id="_x33_2_crown_x2C__feather_x2C__feathers_x2C__leader_x2C__indian_x2C__wild_x2C__west"/><g id="_x33_1_kayak_x2C__water_x2C__river_x2C__indian_x2C__wild_x2C__west_x2C__cowboy"/><g id="_x33_0_necklace_x2C__tooth_x2C__indian_x2C__wild_x2C__west_x2C__cowboy"/><g id="_x32_9_bullet_x2C__revolver_x2C__shot_x2C__wild_x2C__west_x2C__cowboy"/><g id="_x32_8_arrow_x2C__indian_x2C__wild_x2C__west_x2C__cowboy"/><g id="_x32_7_boot_x2C__boots_x2C__shoes_x2C__wild_x2C__west_x2C__cowboy"/><g id="_x32_6_poncho_x2C__clothes_x2C__wild_x2C__west_x2C__cowboy"/><g id="_x32_5_wanted_x2C__search_x2C__leaflet_x2C__wild_x2C__west_x2C__cowboy"/><g id="_x32_4_skull_x2C__bull_x2C__bone_x2C__cow_x2C__wild_x2C__west_x2C__cowboy"/><g id="_x32_3_pickaxe_x2C__gold_x2C__coin_x2C__mining_x2C__mine_x2C__wild_x2C__west"/><g id="_x32_2_trolley_x2C__gold_x2C__mine_x2C__mining_x2C__wild_x2C__west_x2C__cowboy"/><g id="_x32_1_saloon_x2C__door_x2C__signboard_x2C__wild_x2C__west_x2C__cowboy"/><g id="_x32_0_saloon_x2C__door_x2C__signboard_x2C__wild_x2C__west_x2C__cowboy"/><g id="_x31_9_robber_x2C__thief_x2C__wild_x2C__west_x2C__cowboy"/><g id="_x31_8_sheriff_x2C__badge_x2C__star_x2C__wild_x2C__west_x2C__cowboy"/><g id="_x31_7_sheriff_x2C__badge_x2C__star_x2C__wild_x2C__west_x2C__cowboy"/><g id="_x31_6_wagon_x2C__cart_x2C__transport_x2C__wild_x2C__west_x2C__cowboy"/><g id="_x31_5_hat_x2C__headdress_x2C__wild_x2C__west_x2C__cowboy"/><g id="_x31_4_tube_x2C__peace_x2C__tobacco_x2C__indian_x2C__wild_x2C__west_x2C__cowboy"/><g id="_x31_3_totem_x2C__pole_x2C__indian_x2C__wild_x2C__west_x2C__cowboy"/><g id="_x31_2_tomahawk_x2C__ax_x2C__indian_x2C__wild_x2C__west_x2C__cowboy"/><g id="_x31_1_dream_x2C__catcher_x2C__indian_x2C__wild_x2C__west_x2C__cowboy"><g><g><path d="m32 43c-10.477 0-19-8.523-19-19s8.523-19 19-19 19 8.523 19 19-8.523 19-19 19zm0-36c-9.374 0-17 7.626-17 17s7.626 17 17 17 17-7.626 17-17-7.626-17-17-17z"/></g><g><path d="m32 43c-.286 0-.558-.122-.748-.336-4.677-5.265-7.252-11.893-7.252-18.664s2.575-13.399 7.252-18.664c.381-.428 1.115-.428 1.496 0 4.677 5.265 7.252 11.893 7.252 18.664s-2.575 13.399-7.252 18.664c-.19.214-.462.336-.748.336zm0-35.46c-3.93 4.791-6 10.458-6 16.46s2.07 11.669 6 16.46c3.93-4.791 6-10.458 6-16.46s-2.07-11.669-6-16.46z"/></g><g><path d="m41.804 34.595c-4.876 0-9.649-1.268-13.804-3.666-5.864-3.386-10.316-8.931-12.537-15.613-.09-.271-.06-.568.083-.815s.385-.422.665-.479c6.862-1.41 13.943-.323 19.789 3.051 5.864 3.386 10.316 8.931 12.537 15.613.09.271.06.568-.083.815s-.385.422-.665.479c-1.985.408-3.999.615-5.985.615zm-24.058-18.824c2.184 5.797 6.057 10.424 11.254 13.425 3.905 2.255 8.213 3.398 12.804 3.398 1.475 0 2.967-.122 4.45-.365-2.184-5.797-6.057-10.424-11.254-13.425-3.905-2.255-8.214-3.398-12.804-3.398-1.474-.001-2.967.121-4.45.365z"/></g><g><path d="m22.197 34.595c-1.987 0-4.001-.207-5.986-.615-.28-.058-.522-.232-.665-.479s-.173-.544-.083-.815c2.221-6.684 6.673-12.229 12.537-15.615 5.845-3.374 12.927-4.461 19.789-3.051.28.058.521.232.665.479.143.247.173.544.083.815-2.221 6.684-6.673 12.229-12.537 15.615-4.154 2.398-8.928 3.666-13.803 3.666zm-4.451-2.366c1.483.243 2.976.365 4.45.365 4.59 0 8.897-1.144 12.804-3.398 5.198-3.001 9.07-7.628 11.254-13.426-1.483-.242-2.976-.365-4.45-.365-4.591 0-8.898 1.144-12.804 3.398-5.197 3.002-9.07 7.629-11.254 13.426z"/></g><g><path d="m32 7c-.553 0-1-.447-1-1v-5c0-.553.447-1 1-1s1 .447 1 1v5c0 .553-.447 1-1 1z"/></g><g><path d="m32 28.001c-2.206 0-4-1.794-4-4s1.794-4 4-4 4 1.794 4 4-1.794 4-4 4zm0-6c-1.103 0-2 .897-2 2s.897 2 2 2 2-.897 2-2-.897-2-2-2z"/></g><g><path d="m32 49c-.553 0-1-.447-1-1v-6c0-.553.447-1 1-1s1 .447 1 1v6c0 .553-.447 1-1 1z"/></g><g><path d="m32 64c-3.197 0-4-12.87-4-13 0-2.206 1.794-4 4-4s4 1.794 4 4c0 .13-.803 13-4 13zm0-15c-1.103 0-2 .897-2 2 0 1.833 1.062 8.652 2 10.629.938-1.977 2-8.796 2-10.629 0-1.103-.897-2-2-2z"/></g><g><path d="m42 45c-.553 0-1-.447-1-1v-5.03c0-.553.447-1 1-1s1 .447 1 1v5.03c0 .553-.447 1-1 1z"/></g><g><path d="m42 49c-1.654 0-3-1.346-3-3s1.346-3 3-3 3 1.346 3 3-1.346 3-3 3zm0-4c-.552 0-1 .448-1 1s.448 1 1 1 1-.448 1-1-.448-1-1-1z"/></g><g><path d="m42 56c-.553 0-1-.447-1-1v-7c0-.553.447-1 1-1s1 .447 1 1v7c0 .553-.447 1-1 1z"/></g><g><path d="m43 53h-2c-.553 0-1-.447-1-1s.447-1 1-1h2c.553 0 1 .447 1 1s-.447 1-1 1z"/></g><g><path d="m22 45c-.553 0-1-.447-1-1v-5.03c0-.553.447-1 1-1s1 .447 1 1v5.03c0 .553-.447 1-1 1z"/></g><g><path d="m22 49c-1.654 0-3-1.346-3-3s1.346-3 3-3 3 1.346 3 3-1.346 3-3 3zm0-4c-.552 0-1 .448-1 1s.448 1 1 1 1-.448 1-1-.448-1-1-1z"/></g><g><path d="m22 56c-.553 0-1-.447-1-1v-7c0-.553.447-1 1-1s1 .447 1 1v7c0 .553-.447 1-1 1z"/></g><g><path d="m23 53h-2c-.553 0-1-.447-1-1s.447-1 1-1h2c.553 0 1 .447 1 1s-.447 1-1 1z"/></g></g></g><g id="_x31_0_indian_x2C__feather_x2C__wild_x2C__west_x2C__cowboy"/><g id="_x39__dynamite_x2C__mine_x2C__mining_x2C__tnt_x2C__wild_x2C__west_x2C__cowboy"/><g id="_x38__bar_x2C__whiskey_x2C__saloon_x2C__wild_x2C__west_x2C__cowboy"/><g id="_x37__revolver_x2C__pistol_x2C__duel_x2C__war_x2C__wild_x2C__west_x2C__cowboy"/><g id="_x36__saddle_x2C__horse_x2C__animal_x2C__wild_x2C__west_x2C__cowboy"/><g id="_x35__horse_x2C__animal_x2C__wild_x2C__west_x2C__cowboy"/><g id="_x34__wigwam_x2C__indian_x2C__wild_x2C__west_x2C__cowboy"/><g id="_x33__treasure_x2C__map_x2C__cactus_x2C__mountain_x2C__wild_x2C__west_x2C__cowboy"/><g id="_x32__card_x2C__deck_x2C__wild_x2C__west_x2C__cowboy"/><g id="_x31__cactus_x2C__desert_x2C__sun_x2C__wild_x2C__west"/></svg>