<?xml version="1.0" encoding="UTF-8"?>
<svg id="svg1029" xmlns="http://www.w3.org/2000/svg" version="1.1" xmlns:svg="http://www.w3.org/2000/svg" viewBox="0 0 682.67 682.67">
  <!-- Generator: Adobe Illustrator 29.5.1, SVG Export Plug-In . SVG Version: 2.1.0 Build 141)  -->
  <path d="M582.67,283.01v-121.68h80v-40h-264.77c-6.04-17.02-19.54-30.52-36.56-36.56v-43.44h-40v43.44c-17.02,6.04-30.52,19.54-36.56,36.56H36.6v40h80v128.85c-11.18-5.77-23.64-8.85-36.57-8.85-21.35,0-41.44,8.33-56.57,23.46C8.33,319.93,0,340.02,0,361.37s8.33,41.44,23.46,56.57l113.14,113.14,113.14-113.14h0c31.19-31.19,31.19-81.95,0-113.14-25.16-25.16-63.05-30.01-93.14-14.58v-128.89h128.17c6.04,17.02,19.54,30.52,36.56,36.56v403.44h-160v40h360v-40h-160V197.89c17.02-6.04,30.52-19.54,36.56-36.56h144.77v121.68c-56.68,9.55-100,58.97-100,118.32,0,66.17,53.83,120,120,120s120-53.83,120-120c0-59.35-43.32-108.77-100-118.32ZM221.45,333.08c15.6,15.6,15.6,40.97,0,56.57l-84.85,84.85-84.85-84.85c-7.58-7.58-11.75-17.62-11.75-28.28,0-10.66,4.17-20.71,11.75-28.28s18.04-11.7,28.28-11.7,20.49,3.9,28.28,11.7l28.29,28.29,28.28-28.29c15.6-15.6,40.97-15.6,56.57,0ZM341.33,121.33c11.03,0,20,8.97,20,20s-8.97,20-20,20-20-8.97-20-20,8.97-20,20-20ZM562.67,481.33c-44.11,0-80-35.89-80-80s35.89-80,80-80,80,35.89,80,80-35.89,80-80,80Z"/>
  <rect x="542.67" y="381.33" width="40" height="40" transform="translate(-118.98 515.41) rotate(-45)"/>
</svg>