<svg id="Layer_1" enable-background="new 0 0 512 512" height="512" viewBox="0 0 512 512" width="512" xmlns="http://www.w3.org/2000/svg"><path d="m419.1 312.799-87.742 51.104c-4.22 2.458-8.511 4.221-12.979 5.307 1.611-2.681 2.882-5.69 3.769-9.002 4.514-16.851-5.498-34.442-22.793-40.05-.343-.11-.693-.198-1.047-.263-25.201-4.546-50.082-13.541-70.074-20.769-6.948-2.512-13.51-4.884-19.092-6.694-22.543-7.314-42.903 1.729-59.846 11.538l-65.091 37.686-6.048-10.687c-5.682-10.038-18.47-13.583-28.508-7.9l-24.619 13.932c-10.038 5.681-13.583 18.469-7.903 28.509l72.377 127.885c3.844 6.792 10.942 10.611 18.241 10.611 3.488 0 7.022-.873 10.268-2.71l24.618-13.933c4.851-2.745 8.345-7.228 9.841-12.622 1.495-5.395.807-11.036-1.938-15.887l-7.358-13 14.619-8.44 112.293 30.089c6.367 1.706 12.616 2.559 18.731 2.558 12.191 0 23.847-3.387 34.816-10.14l159.23-98.047c14.61-8.995 19.248-31.658 9.731-47.547-4.617-7.711-23.564-30.607-73.496-1.528zm-282.047 157.669c-.354 1.275-1.171 2.33-2.302 2.971l-24.618 13.933c-2.319 1.315-5.39.463-6.704-1.857l-72.377-127.885c-1.313-2.321-.462-5.391 1.858-6.704l24.618-13.933c.742-.42 1.561-.618 2.375-.618 1.729 0 3.435.897 4.328 2.476l72.377 127.885c.641 1.13.799 2.455.445 3.732zm157.954-84.939c16.37 2.618 30.895.067 44.404-7.8l87.742-51.104c25.143-14.644 44.477-16.167 51.718-4.077 4.984 8.322 2.767 21.293-4.395 25.701l-159.229 98.047c-12.576 7.742-26.375 9.677-41.018 5.752l-115.495-30.946c-2.051-.551-4.233-.262-6.07.799l-17.37 10.028-43.209-76.347 65.227-37.765c14.59-8.447 30.369-15.524 46.893-10.165 5.33 1.729 11.474 3.95 18.589 6.522 20.409 7.378 45.77 16.548 72.094 21.362 9.053 3.171 14.115 11.913 11.806 20.531-3.037 11.334-12.49 12.752-20.021 11.888-12.918-2.656-25.197-6.161-38.19-9.871-6.161-1.76-12.531-3.579-19.079-5.334-4.267-1.141-8.654 1.39-9.798 5.657-1.144 4.268 1.389 8.654 5.657 9.798 6.422 1.721 12.728 3.521 18.827 5.264 13.399 3.826 26.056 7.441 39.688 10.229m-219.212-22.192c.702 4.803-2.622 9.266-7.426 9.969-4.803.702-9.266-2.622-9.968-7.426-.702-4.803 2.622-9.266 7.425-9.969 4.804-.702 9.267 2.622 9.969 7.426zm429.01-166.658-5.67-3.274v-38.813c0-3.627-2.44-6.801-5.946-7.732l-65.316-17.35c0-.024.002-.048.002-.073v-53.447c0-10.605-8.628-19.234-19.234-19.234h-72.073v-15.463c-.002-17.348-14.115-31.462-31.463-31.462h-70.043c-17.349 0-31.462 14.114-31.462 31.462v15.463h-72.075c-10.605 0-19.233 8.628-19.233 19.234v53.447c0 10.937 4.389 20.44 13.351 28.798v94.921c0 16.5 13.424 29.924 29.925 29.924h229.029c16.5 0 29.924-13.424 29.924-29.924v-28.526c6.833-.658 14.843-2.17 27.131-4.546 6.48-1.253 14.545-2.812 24.318-4.599 3.8-.695 6.561-4.006 6.561-7.87v-39.804l10.603-2.817v28.411l-5.671 3.274c-2.475 1.429-4 4.07-4 6.928v29.496c0 3.032 1.714 5.803 4.427 7.158 1.131.564 2.354.842 3.572.842 1.703 0 3.396-.543 4.809-1.606l4.863-3.657 4.862 3.657c2.424 1.822 5.669 2.118 8.381.764 2.713-1.354 4.427-4.125 4.427-7.158v-29.496c.001-2.858-1.524-5.499-3.999-6.928zm-97.801-28.017-52.969-14.07 52.969-14.07 52.969 14.07zm-207.143-95.906h140.442v28.53c0 3.355-2.729 6.084-6.085 6.084h-128.272c-3.355 0-6.085-2.729-6.085-6.084zm99.935-16h-59.427v-10.155h59.427zm-80.196-15.463c0-8.526 6.937-15.462 15.462-15.462h70.043c8.525 0 15.461 6.936 15.461 15.462v15.463h-4.77v-15.463c0-5.896-4.796-10.692-10.691-10.692h-70.043c-5.896 0-10.692 4.796-10.692 10.692v15.463h-4.77zm-91.309 34.697c0-1.783 1.45-3.234 3.233-3.234h52.337v28.53c0 12.177 9.907 22.084 22.085 22.084h128.272c12.178 0 22.085-9.907 22.085-22.084v-28.53h52.336c1.783 0 3.234 1.451 3.234 3.234v49.27l-2.815-.748c-1.346-.357-2.762-.357-4.107 0l-84.13 22.348c-3.506.931-5.946 4.104-5.946 7.732s2.44 6.801 5.946 7.732l20.657 5.487v.491c-11.728 1.715-24.478 2.984-38.066 3.782-5.079-13.474-18.1-23.086-33.329-23.086-15.236 0-28.262 9.62-33.337 23.103-42.497-2.486-76.612-9.628-91.999-19.362-11.227-7.104-16.456-14.508-16.456-23.3zm161.4 108.615c0 10.812-8.796 19.609-19.608 19.609-10.813 0-19.61-8.796-19.61-19.609 0-10.812 8.797-19.608 19.61-19.608 10.812 0 19.608 8.796 19.608 19.608zm94.905 82.475h-229.029c-7.678 0-13.925-6.246-13.925-13.924v-83.841c18.995 9.546 52.079 16.209 92.996 18.688 1.717 18.047 16.955 32.211 35.444 32.211 18.494 0 33.735-14.174 35.444-32.229 12.731-.775 24.754-1.961 35.951-3.528v23.158c0 3.863 2.761 7.175 6.561 7.87 9.773 1.787 17.838 3.346 24.318 4.599 11.71 2.264 19.54 3.747 26.164 4.452v28.621c.001 7.677-6.246 13.923-13.924 13.923zm71.935-66.122c-6.959 1.298-12.908 2.448-17.916 3.417-31.609 6.111-31.609 6.111-63.222 0-5.008-.968-10.957-2.118-17.916-3.417v-28.897l47.473 12.61c1.346.357 2.762.357 4.107 0l47.473-12.611v28.898zm36.274 17.049c-1.101-.234-2.241-.235-3.341 0v-9.781l1.671-.964 1.67.964z"/></svg>