<?xml version="1.0" encoding="UTF-8"?>
<svg id="Capa_1" xmlns="http://www.w3.org/2000/svg" version="1.1" viewBox="0 0 512 512">
  <!-- Generator: Adobe Illustrator 29.5.1, SVG Export Plug-In . SVG Version: 2.1.0 Build 141)  -->
  <g>
    <path d="M118.85,335.88C53.51,335.88.34,282.71.34,217.37c0-25.63,8.07-50.02,23.36-70.58.17-.26.34-.52.52-.78,0,0,.01-.02.02-.03,48.21-69.87,139.35-113.28,237.86-113.28,66.1,0,129.81,19.43,179.41,54.7,17.49,12.44,21.59,36.78,9.16,54.27-6.03,8.47-14.99,14.09-25.24,15.82-10.25,1.73-20.56-.64-29.03-6.66-36.53-25.98-84.23-40.29-134.29-40.29-25.3,0-50.44,3.73-73.78,10.88,30.34,22.07,49.05,57.77,49.05,95.95,0,65.35-53.16,118.51-118.51,118.51ZM40.49,157.66s-.02.03-.03.05l-.13.2c-.13.19-.26.38-.4.57-12.81,17.13-19.59,37.49-19.59,58.89,0,54.32,44.19,98.51,98.51,98.51s98.51-44.19,98.51-98.51c0-37.95-22.25-72.96-56.69-89.18-3.59-1.69-5.84-5.34-5.73-9.3s2.54-7.49,6.21-8.99c30.92-12.66,65.83-19.35,100.94-19.35,54.19,0,106,15.62,145.88,44,4.12,2.93,9.13,4.08,14.12,3.24,4.98-.84,9.34-3.57,12.27-7.69,6.05-8.5,4.05-20.34-4.45-26.39-46.24-32.89-105.84-51-167.82-51-92.04,0-176.87,40.09-221.4,104.63-.07.1-.13.2-.2.3,0,0,0,.01-.01.02ZM118.85,278.04c-33.45,0-60.67-27.21-60.67-60.67s27.22-60.67,60.67-60.67,60.67,27.22,60.67,60.67-27.22,60.67-60.67,60.67ZM118.85,176.7c-22.43,0-40.67,18.25-40.67,40.67s18.25,40.67,40.67,40.67,40.67-18.25,40.67-40.67-18.25-40.67-40.67-40.67Z"/>
    <path d="M258.24,479.17c-61.4,0-121.59-17.04-169.48-47.97-8.73-5.64-14.74-14.34-16.93-24.5-2.19-10.16-.28-20.57,5.36-29.3,11.64-18.02,35.78-23.21,53.81-11.57,35.46,22.9,80.65,35.52,127.24,35.52,19.17,0,38.03-2.12,56.3-6.3-9.56-8.49-17.74-18.5-24.15-29.61-10.31-17.89-15.76-38.29-15.76-59.01,0-65.35,53.16-118.51,118.51-118.51s118.51,53.16,118.51,118.51c0,32.41-13.54,63.77-37.15,86.1-22.46,23.77-51.25,44.02-83.27,58.58-40.4,18.37-86.38,28.08-132.99,28.08ZM109.91,379.59c-6.22,0-12.31,3.05-15.93,8.65-2.74,4.25-3.67,9.31-2.6,14.25s3.99,9.17,8.23,11.91c44.7,28.87,101.03,44.77,158.63,44.77,43.77,0,86.9-9.09,124.72-26.29,29.77-13.54,56.47-32.32,77.2-54.31.14-.15.28-.29.43-.42,20.04-18.85,31.08-44.33,31.08-71.74,0-54.32-44.19-98.51-98.51-98.51s-98.51,44.19-98.51,98.51c0,34.7,17.78,66.21,47.57,84.29,3.35,2.03,5.21,5.84,4.74,9.73-.46,3.89-3.16,7.15-6.89,8.34-26.17,8.33-53.69,12.55-81.81,12.55-50.4,0-99.44-13.75-138.09-38.71-3.17-2.04-6.72-3.02-10.24-3.02ZM393.15,367.08c-33.45,0-60.67-27.21-60.67-60.67s27.21-60.67,60.67-60.67,60.67,27.22,60.67,60.67c0,11.09-3.03,21.95-8.77,31.4-.24.4-.51.78-.81,1.14l-.15.18c-.08.1-.16.19-.23.29-3.02,3.94-6.41,7.96-10.09,11.94-.24.26-.5.51-.77.75-11.06,9.65-25.21,14.97-39.84,14.97ZM393.15,265.74c-22.43,0-40.67,18.25-40.67,40.67s18.25,40.67,40.67,40.67c9.63,0,18.95-3.44,26.31-9.7,3.11-3.39,5.98-6.79,8.52-10.11.1-.14.21-.27.32-.4,3.62-6.19,5.54-13.25,5.54-20.46,0-22.43-18.25-40.67-40.67-40.67ZM436.5,332.63h0,0Z"/>
    <path d="M363.5,397.63c-3.31,0-6-2.69-6-6v-10.73c0-3.31,2.69-6,6-6s6,2.69,6,6v10.73c0,3.31-2.69,6-6,6Z"/>
    <path d="M399.13,409.88c-3.31,0-6-2.69-6-6v-10.73c0-3.31,2.69-6,6-6s6,2.69,6,6v10.73c0,3.31-2.69,6-6,6Z"/>
  </g>
  <g>
    <path d="M55.55,178.44c-2.03,0-4.07-.61-5.84-1.89-4.48-3.23-5.49-9.48-2.25-13.96,1.5-2.08,3.06-4.15,4.63-6.16,3.4-4.35,9.69-5.11,14.04-1.71,4.35,3.4,5.11,9.69,1.71,14.04-1.41,1.8-2.81,3.67-4.16,5.54-1.95,2.71-5.01,4.15-8.11,4.15Z"/>
    <path d="M89.3,147.71c-2.78,0-5.54-1.15-7.52-3.4-3.64-4.15-3.23-10.47.91-14.11,14.75-12.95,31.48-24.34,49.74-33.86,4.89-2.55,10.93-.65,13.49,4.25,2.55,4.9.65,10.93-4.25,13.49-16.84,8.78-32.24,19.26-45.79,31.15-1.9,1.67-4.25,2.49-6.59,2.49Z"/>
  </g>
  <g>
    <circle cx="493.98" cy="18.31" r="17.98" transform="translate(253.89 450.41) rotate(-63.06)"/>
    <circle cx="96.89" cy="7.59" r="7.59"/>
    <path d="M24.42,11.82l-6.09,17.13c-.26.73-.78,1.31-1.43,1.61l-15.22,6.86c-2.15.97-2.15,4.39,0,5.36l15.22,6.86c.65.29,1.17.87,1.43,1.61l6.09,17.13c.86,2.42,3.9,2.42,4.76,0l6.09-17.13c.26-.73.78-1.31,1.43-1.61l15.22-6.86c2.15-.97,2.15-4.39,0-5.36l-15.22-6.86c-.65-.29-1.17-.87-1.43-1.61l-6.09-17.13c-.86-2.42-3.9-2.42-4.76,0Z"/>
    <path d="M38.83,433.32l-8.21,23.09c-.35.99-1.05,1.77-1.93,2.17l-20.52,9.24c-2.9,1.31-2.9,5.92,0,7.23l20.52,9.24c.88.4,1.57,1.18,1.93,2.17l8.21,23.09c1.16,3.26,5.26,3.26,6.42,0l8.21-23.09c.35-.99,1.05-1.77,1.93-2.17l20.52-9.24c2.9-1.31,2.9-5.92,0-7.23l-20.52-9.24c-.88-.4-1.57-1.18-1.93-2.17l-8.21-23.09c-1.16-3.26-5.26-3.26-6.42,0Z"/>
  </g>
</svg>